<svg xmlns="http://www.w3.org/2000/svg" width="30" height="30" viewBox="0 0 30 30">
    <defs>
        <linearGradient id="a" x1="50%" x2="50%" y1="0%" y2="100%">
            <stop offset="0%" stop-color="#A2F4AF"/>
            <stop offset="100%" stop-color="#69E577"/>
        </linearGradient>
    </defs>
    <g fill="none" fill-rule="evenodd">
        <rect width="29.344" height="29.167" fill="url(#a)" rx="14.583"/>
        <path fill="#FFF" d="M6.256 7.26C4.18 11.038 11.137 18.05 11.137 18.05s7.23 7.262 11.09 5.082c0 0 1.188-1.03 1.435-2.604.025-.156-.288-.354-.385-.43-.32-.25-.663-.47-1.005-.687-.821-.52-1.664-1.006-2.501-1.5-.264-.155-.551-.333-.864-.245-.18.05-.366.105-.532.192-.589.307-1.072.595-1.71.884 0 0-1.019-.08-3.448-2.528-2.582-2.602-2.657-3.456-2.657-3.456.336-.474.642-.97.896-1.492.11-.227.26-.443.324-.689.065-.247-.068-.424-.18-.64a30.729 30.729 0 0 0-.787-1.429c-.473-.812-.955-1.657-1.56-2.382-.063-.076-.212-.302-.333-.293-1.342.09-2.664 1.425-2.664 1.425z"/>
    </g>
</svg>
